PathFileType	4	(X/Y/Z)	C:\Users\WrightLab\Desktop\Jo\P2_Trial18.trc
DataRate	CameraRate	NumFrames	NumMarkers	Units	OrigDataRate	OrigDataStartFrame	OrigNumFrames
100.00	100.00	       8	19	mm	100.00	271	       433
Frame#	Time	Headset_Front			Headset_Back			Headset_Left			Headset_Right			Left_Shoulder			Right_Shoulder			Sternum			C7			Left Elbow			Right Elbow			Left Wrist			Right Wrist			Left ASIS			Right ASIS			S2			Left Knee			Right Knee			Left Ankle			Right Ankle			
		X1	Y1	Z1	X2	Y2	Z2	X3	Y3	Z3	X4	Y4	Z4	X5	Y5	Z5	X6	Y6	Z6	X7	Y7	Z7	X8	Y8	Z8	X9	Y9	Z9	X10	Y10	Z10	X11	Y11	Z11	X12	Y12	Z12	X13	Y13	Z13	X14	Y14	Z14	X15	Y15	Z15	X16	Y16	Z16	X17	Y17	Z17	X18	Y18	Z18	X19	Y19	Z19	

271	2.700	-168.79491	1417.79651	1348.66479	-152.81517	1625.42688	1119.80261	-45.66519	1536.55383	1223.65479	-268.88013	1480.14172	1253.36792	3.70329	1427.18066	1060.63464	-306.47800	1373.85852	1145.58606	-124.05608	1271.82922	1142.65784	-192.52534	1408.97607	996.67957	41.89468	1208.15625	1164.81250	-432.96527	1112.88318	970.49762	132.75833	1172.78564	1066.91565	-483.23953	877.55750	885.81946	-2.51743	1009.04456	1098.90430	-156.46829	916.93079	880.57635	-120.92560	969.90216	1146.60437	75.10722	475.49124	744.91754	-165.87852	531.86493	1201.99414	42.16029	157.80762	572.27942	-107.87969	230.55901	1456.70093	
272	2.710	-170.52490	1417.52820	1363.92920	-154.70958	1625.31079	1134.84204	-47.44120	1536.30701	1238.50110	-271.03421	1479.83289	1268.47498	2.59388	1426.38513	1078.89429	-308.41089	1373.17065	1158.78503	-126.06206	1270.48816	1158.77832	-192.86880	1408.13489	1011.20544	39.09608	1205.17883	1180.29529	-432.72058	1111.87000	981.38568	132.63370	1173.96814	1086.25269	-480.21188	876.79932	893.57947	-3.07398	1007.24445	1116.70093	-153.69244	916.01276	895.28979	-122.18569	970.11188	1162.31494	75.64719	477.19437	759.57410	-164.66454	531.57031	1218.42444	40.78757	163.40585	578.81091	-112.71001	225.04340	1467.03857	
273	2.720	-173.03127	1416.98181	1375.76404	-157.27777	1625.72876	1150.73206	-50.26257	1536.86609	1255.10913	-273.53885	1479.92017	1284.12109	1.47947	1426.22754	1097.00940	-311.67133	1371.52148	1171.99536	-128.54926	1270.30615	1174.60657	-193.05551	1408.38855	1025.90222	37.30581	1204.86133	1200.81689	-432.09592	1110.39453	992.31061	133.37268	1173.00403	1108.37634	-477.39407	875.90405	900.91528	-4.31427	1006.06158	1134.39624	-151.45081	915.38245	908.82208	-124.33460	969.14587	1178.60010	76.25285	478.96570	773.84729	-162.88998	533.14166	1235.61462	40.14626	169.76208	587.02435	-118.67723	219.56226	1477.00317	
274	2.730	-175.55969	1417.56396	1391.41248	-159.72058	1626.75769	1166.67212	-52.85049	1539.14966	1271.45886	-276.27206	1480.86328	1300.13232	0.21090	1426.58740	1116.13159	-314.68536	1371.77686	1185.47107	-130.50092	1270.37109	1191.23901	-191.93700	1407.72327	1041.47693	34.63491	1204.09387	1219.78333	-431.60184	1108.99597	1003.64911	132.46664	1173.90491	1130.75586	-473.88629	874.71893	908.85699	-5.23565	1004.92792	1152.23499	-148.88338	916.66034	923.53491	-127.11243	966.97137	1192.20667	76.39400	481.51501	788.85742	-161.09239	535.95941	1252.67212	39.91983	176.38579	596.16315	-122.87902	213.86697	1486.32483	
275	2.740	-178.93456	1419.17236	1408.02185	-162.30812	1627.55396	1182.57068	-55.61296	1539.78870	1288.26782	-278.90555	1482.24817	1316.36353	-1.11357	1427.34412	1136.54810	-317.22513	1372.44446	1201.37988	-131.92642	1272.41504	1208.81604	-193.25102	1410.27673	1056.62305	31.42560	1203.85229	1239.47778	-430.30627	1108.07275	1013.72675	132.02007	1175.41943	1151.79346	-470.56433	874.48944	916.99420	-7.90926	1003.87109	1170.07727	-145.14029	919.20703	936.07355	-131.85910	964.85999	1212.16467	76.70654	483.52530	804.70490	-159.36880	540.29980	1268.79614	40.64012	183.42621	606.11682	-127.38399	207.70892	1494.54285	
276	2.750	-182.04353	1421.05676	1425.07043	-165.32803	1628.82507	1198.09668	-58.24999	1540.88684	1303.50928	-281.57324	1484.05273	1332.30847	-2.28058	1428.45508	1156.95679	-320.49756	1372.76245	1213.87439	-134.98604	1272.85217	1225.76050	-192.51753	1412.34985	1071.50586	27.35000	1203.68274	1255.43982	-428.87720	1108.14270	1023.74225	129.79376	1177.82727	1171.59705	-468.27649	874.90894	926.33752	-10.14060	1002.75562	1187.51038	-142.18257	921.70935	950.65820	-136.11252	964.09241	1224.85901	76.38126	486.10822	821.64368	-159.46742	547.83881	1283.86450	41.92181	190.86807	616.67053	-131.09967	201.63728	1501.09021	
277	2.760	-185.27208	1423.09778	1440.85437	-167.81728	1629.31934	1213.05322	-61.89269	1542.29065	1319.43152	-284.68018	1485.55310	1347.71143	-4.31678	1429.58069	1176.33337	-323.15869	1374.15588	1225.40967	-137.78432	1273.67749	1241.73950	-191.71089	1415.18738	1086.20715	23.32727	1204.99341	1275.87756	-427.15265	1108.81970	1033.54211	129.03590	1177.70569	1195.98462	-465.27176	875.44183	935.19867	-14.51172	1002.87634	1204.10974	-139.52107	924.22699	964.58337	-140.24564	964.75281	1238.34204	77.55348	489.17664	839.35992	-158.99498	555.50336	1298.25293	43.80660	197.96381	628.68073	-133.83272	194.88214	1506.11914	
278	2.770	-189.15349	1424.22498	1455.20215	-170.47292	1629.98547	1227.62537	-64.95514	1543.29333	1334.50024	-288.02881	1486.60803	1362.27332	-6.34276	1430.95752	1196.51099	-325.36624	1376.00916	1236.21228	-141.22876	1274.62097	1257.11792	-190.91310	1417.93726	1100.48694	17.94345	1206.25903	1295.08484	-425.19504	1110.74768	1042.74329	126.67899	1179.26245	1217.69287	-462.12112	877.08124	944.42450	-19.12543	1004.12549	1221.21338	-136.16449	927.27429	978.37659	-146.23409	967.36963	1252.07922	78.46304	491.69458	859.45734	-159.35248	562.58545	1313.10938	46.48794	205.41563	641.19714	-136.90968	187.89183	1510.93835	
